# xmcd CD database file
#
# Track frame offsets:
#	150
#	17038
#	30737
#	47348
#	61971
#	79716
#	97394
#	114493
#	127569
#	139199
#	155248
#	166464
#	180172
#	193957
#	207947
#	221934
#	236779
#	254998
#	289342
#	321243
#	334233
#	348177
#
# Disc length: 4798 seconds
#
# Revision: 1
# Processed by: cddbd v1.5.2PL0 Copyright (c) Steve Scherf et al.
# Submitted via: CDex 1.50Beta5
#
DISCID=5512bc16
DTITLE=Aviões do Forró - CD do DVD
DYEAR=2006
DGENRE=Forró
TTITLE0=Olha a Barriguinha
TTITLE1=Fazer Valer
TTITLE2=Pode Chorar
TTITLE3=Não Quero Me Amarrar
TTITLE4=Risca Faca
TTITLE5=Gostosão
TTITLE6=Meu Bebê
TTITLE7=Bota Mais Uma Pra Mim - Piri Piri
TTITLE8=Tum Tará
TTITLE9=Ei Gatinha
TTITLE10=Ilusão
TTITLE11=Jeito de Amar
TTITLE12=Forrozeira Linda - Mulher Doideira
TTITLE13=Um Homem Ausente
TTITLE14=Dói Quando Agente Quebra a Cara
TTITLE15=Começo, Meio e Fim
TTITLE16=Amor de Motel/ Brinquedo Em Sua Mãos
TTITLE17=Bla Bla Bla/ Vai Que Tá Gostoso
TTITLE18=O Que Tem Que Ser Será/ Coração/ Eu Não Vou Mais Chorar
TTITLE19=Você Não Vale Nada
TTITLE20=Darundarunde
TTITLE21=Só Quero Ficar
EXTD=YEAR: 2006
EXTT0=
EXTT1=
EXTT2=
EXTT3=
EXTT4=
EXTT5=
EXTT6=
EXTT7=
EXTT8=
EXTT9=
EXTT10=
EXTT11=
EXTT12=
EXTT13=
EXTT14=
EXTT15=
EXTT16=
EXTT17=
EXTT18=
EXTT19=
EXTT20=
EXTT21=
PLAYORDER=
